<?xml version="1.0" standalone="no"?>
<!DOCTYPE svg PUBLIC "-//W3C//DTD SVG 20010904//EN"
 "http://www.w3.org/TR/2001/REC-SVG-20010904/DTD/svg10.dtd">
<svg version="1.0" xmlns="http://www.w3.org/2000/svg"
 width="700.000000pt" height="700.000000pt" viewBox="0 0 700.000000 700.000000"
 preserveAspectRatio="xMidYMid meet">
<metadata>
Created by potrace 1.11, written by Peter Selinger 2001-2013
</metadata>
<g transform="translate(0.000000,700.000000) scale(0.100000,-0.100000)"
fill="#000000" stroke="none">
<path d="M259 6998 c-6 -12 -3 -1406 2 -1414 5 -6 50 -9 114 -9 100 2 105 1
106 -19 0 -12 1 -1217 1 -2678 0 -1462 3 -2659 7 -2659 3 -1 374 -2 824 -3
542 -1 821 2 825 9 4 5 8 570 8 1255 1 685 2 1252 3 1261 1 14 28 15 226 15
l225 0 0 -1378 0 -1378 895 0 895 0 0 1378 0 1379 232 -1 233 -1 -1 -1265 c0
-696 3 -1267 7 -1270 4 -3 378 -5 831 -5 l823 0 5 2680 5 2680 110 0 110 0 0
710 0 710 -3242 3 c-1784 1 -3244 1 -3244 0z m2336 -2178 l0 -755 -205 0
c-113 0 -214 1 -225 3 -20 3 -20 11 -20 750 0 411 3 749 7 752 4 3 105 5 225
5 l218 0 0 -755z m2261 3 c1 -678 -1 -752 -15 -755 -9 -2 -113 -4 -231 -3
l-215 0 -3 755 -2 756 232 -1 233 0 1 -752z"/>
</g>
</svg>
