<?xml version="1.0" encoding="utf-8"?>
<!-- Generator: Adobe Illustrator 21.1.0, SVG Export Plug-In . SVG Version: 6.00 Build 0)  -->
<svg version="1.1" id="Layer_1" xmlns="http://www.w3.org/2000/svg" xmlns:xlink="http://www.w3.org/1999/xlink" x="0px" y="0px"
	 viewBox="0 0 2048 2048" style="enable-background:new 0 0 2048 2048;" xml:space="preserve">
<style type="text/css">
	.st0{fill:#1B4549;}
	.st1{fill:none;}
</style>
<g id="Layer_x0020_1">
	<path class="st0" d="M680.5,762.7h180.3V533.3c0-0.7,0-1.4,0.1-2.1c3.7-70.5,18-134.2,50.8-180.9c34.1-48.5,87-78.3,167.1-78.3
		h288.7c8.8,0,16,7.2,16,16v231.2c0,8.8-7.2,16-16,16h-114c-29.4,0-51.4,4.5-65.8,16.3l-10.2-12.3l10.2,12.3
		c-0.3,0.3-0.6,0.5-0.9,0.7c-13.3,11.5-20.7,30.8-22.4,60.7h0v149.7h203c8.8,0,16,7.2,16,16V1024c0,8.8-7.2,16-16,16h-203v720
		c0,8.8-7.2,16-16,16H876.8c-8.8,0-16-7.2-16-16v-720H680.5c-8.8,0-16-7.2-16-16V778.7C664.5,769.8,671.7,762.7,680.5,762.7
		L680.5,762.7z"/>
</g>
<rect class="st1" width="2048" height="2048"/>
</svg>
