<?xml version="1.0" encoding="utf-8"?>
<!-- Generator: Adobe Illustrator 21.1.0, SVG Export Plug-In . SVG Version: 6.00 Build 0)  -->
<svg version="1.1" id="Layer_1" xmlns="http://www.w3.org/2000/svg" xmlns:xlink="http://www.w3.org/1999/xlink" x="0px" y="0px"
	 viewBox="0 0 2048 2048" style="enable-background:new 0 0 2048 2048;" xml:space="preserve">
<style type="text/css">
	.st0{fill:#1B4549;}
	.st1{fill:none;}
</style>
<g id="Layer_x0020_1">
	<path class="st0" d="M1431.6,1776H653.5c-120.3,0-215.3-32-280.7-92c-65.7-60.3-100.8-148.1-100.8-259.4V815.3h404.8
		C650,868,634.8,927.7,634.8,990.8c0,107.3,43.6,204.6,114.1,275c70.5,70.5,167.8,114.1,275,114.1c107.3,0,204.6-43.7,275.1-114.1
		c70.5-70.5,114.1-167.8,114.1-275c0-63.1-15.1-122.7-41.9-175.5H1776v605c0,99.5-37.8,188.4-99.6,252.4
		C1614.3,1736.8,1528.2,1776,1431.6,1776L1431.6,1776z M846.4,813.3c45.5-45.5,108.3-73.7,177.6-73.7c69.3,0,132.1,28.1,177.6,73.7
		c45.4,45.5,73.5,108.2,73.5,177.6c0,69.3-28.1,132.1-73.6,177.6c-45.4,45.4-108.2,73.6-177.6,73.6c-69.3,0-132.1-28.1-177.6-73.6
		c-45.4-45.4-73.6-108.2-73.6-177.6C772.9,921.6,801,858.8,846.4,813.3L846.4,813.3z M771.6,1243.2c64.7,64.7,154,104.7,252.4,104.7
		c98.5,0,187.8-40.1,252.4-104.7c64.7-64.7,104.8-154,104.8-252.4c0-98.5-40-187.7-104.7-252.3c-64.7-64.7-154-104.7-252.5-104.7
		c-98.5,0-187.8,40-252.5,104.7C706.9,803,666.8,892.3,666.8,990.8C666.8,1089.2,706.9,1178.5,771.6,1243.2z"/>
	<path class="st0" d="M1388,415.1h100.1c23,0,43.9,9.4,59,24.4c15.2,15.1,24.5,36,24.5,59v100.2c0,23-9.4,43.9-24.5,59
		c-15.2,15.2-36,24.5-59,24.5H1388c-23,0-43.9-9.4-59-24.5c-15.1-15.1-24.5-36-24.5-59V498.5c0-23,9.4-43.8,24.5-59
		C1344.2,424.5,1365,415.1,1388,415.1L1388,415.1z M1776,651c0-109.2-35.8-199.2-89.3-263.9c-61.1-73.9-145.6-115.1-226.9-115.1
		H682.3v413.9c0,8.8-7.2,16-16,16c-8.8,0-16-7.2-16-16V272h-36.4c-7.4,0-14.7,0.2-21.8,0.6v413.3c0,8.8-7.2,16-16,16
		c-8.8,0-16-7.2-16-16V275.8c-20.3,2.9-39.7,7.6-58.3,13.7v396.3c0,8.8-7.2,16-16,16s-16-7.2-16-16V302.2
		c-39.9,18.4-74.9,44.7-103.9,77.8C306.2,448.1,272,544.7,272,659.8v123.5h423c15.5-24.5,33.6-47.1,54-67.5
		c70.5-70.4,167.8-114.1,275-114.1c107.3,0,204.5,43.6,275,114.1c20.4,20.4,38.5,43,54,67.4h423L1776,651L1776,651z"/>
</g>
<rect class="st1" width="2048" height="2048"/>
</svg>
