<?xml version="1.0" encoding="utf-8"?>
<!-- Generator: Adobe Illustrator 21.1.0, SVG Export Plug-In . SVG Version: 6.00 Build 0)  -->
<svg version="1.1" id="Layer_1" xmlns="http://www.w3.org/2000/svg" xmlns:xlink="http://www.w3.org/1999/xlink" x="0px" y="0px"
	 viewBox="0 0 2048 2048" style="enable-background:new 0 0 2048 2048;" xml:space="preserve">
<style type="text/css">
	.st0{fill:#1B4549;}
	.st1{fill:none;}
</style>
<g id="Layer_x0020_1">
	<path class="st0" d="M1710.5,1776h-294.7h-16v-16v-638.6c0-34.3-4.6-63.1-19-82.3c-13.8-18.4-38-29.2-78.1-29.2
		c-129.8,0-162.3,98.4-166.5,113.4V1760v16l-16,0H825.6h-16v-16V726.4v-16h16h294.6h16v16v68.4c21.9-14.2,50.9-30.7,86.3-45.2
		c51.8-21.3,117.1-38.4,193.3-38.4c60.8,0,160.8,21.7,231.2,117.9c46.3,63.2,79.5,158.6,79.5,301V1760v16L1710.5,1776L1710.5,1776z"
		/>
	<path class="st0" d="M485.3,581.5c-42.6,0-81.2-17.4-109.2-45.5c-27.9-28-45.2-66.8-45.2-109.6c0-42.6,17.3-81.2,45.2-109.2
		c27.9-27.9,66.6-45.2,109.2-45.2l0.1,0.1c42.6,0.4,81.2,17.9,109,45.7c27.9,27.9,45.2,66.4,45.2,108.6c0,42.9-17.3,81.6-45.2,109.7
		C566.6,564.2,528,581.5,485.3,581.5L485.3,581.5z"/>
	<polygon class="st0" points="633.1,1776 337.5,1776 321.5,1776 321.5,1760 321.5,726.4 321.5,710.4 337.5,710.4 633.1,710.4 
		649.1,710.4 649.1,726.4 649.1,1760 649.1,1776 	"/>
</g>
<rect class="st1" width="2048" height="2048"/>
</svg>
