<?xml version="1.0" encoding="utf-8"?>
<!-- Generator: Adobe Illustrator 21.1.0, SVG Export Plug-In . SVG Version: 6.00 Build 0)  -->
<svg version="1.1" id="Layer_1" xmlns="http://www.w3.org/2000/svg" xmlns:xlink="http://www.w3.org/1999/xlink" x="0px" y="0px"
	 viewBox="0 0 2048 2048" style="enable-background:new 0 0 2048 2048;" xml:space="preserve">
<style type="text/css">
	.st0{fill:#1B4549;}
	.st1{fill:none;}
</style>
<g id="Layer_x0020_1">
	<g id="_333160488">
		<g>
			<path id="_333160872" class="st0" d="M1647,1559.8h43.8c55.7,0,101.2-45.5,101.2-101.2V589.4c0-55.7-45.5-101.2-101.2-101.2H1647
				V1559.8L1647,1559.8z"/>
			<path id="_333160368" class="st0" d="M1028.3,1165.3l-1.2,0.8l-3.1-2.2l-3.1,2.2l-1.2-0.8C763.6,984.9,512.4,791.9,256,603.2
				l68.3-107.1L399,490l2-1.8l620,462.9l3-2.2l3,2.2l620-462.9l2,1.8l74.6,6.1l68.3,107.1C1535.6,791.9,1284.4,984.9,1028.3,1165.3
				L1028.3,1165.3z"/>
			<path id="_333160728" class="st0" d="M401,1559.8h-43.8c-55.7,0-101.2-45.5-101.2-101.2V589.4c0-55.7,45.5-101.2,101.2-101.2H401
				V1559.8L401,1559.8z"/>
		</g>
		<polygon id="_333160440" class="st0" points="366.2,1509.2 1681.8,1509.2 1681.8,1559.8 366.2,1559.8 		"/>
		<polygon id="_333160752" class="st0" points="366.2,488.2 1681.8,488.2 1681.8,538.8 366.2,538.8 		"/>
	</g>
</g>
<rect class="st1" width="2048" height="2048"/>
</svg>
