<?xml version="1.0" encoding="utf-8"?>
<!-- Generator: Adobe Illustrator 21.1.0, SVG Export Plug-In . SVG Version: 6.00 Build 0)  -->
<svg version="1.1" id="Layer_1" xmlns="http://www.w3.org/2000/svg" xmlns:xlink="http://www.w3.org/1999/xlink" x="0px" y="0px"
	 viewBox="0 0 2048 2048" style="enable-background:new 0 0 2048 2048;" xml:space="preserve">
<style type="text/css">
	.st0{fill:#1B4549;}
	.st1{fill:none;}
</style>
<g id="Layer_x0020_1">
	<path class="st0" d="M1670.7,582.6c28.1-7.7,55.3-17.5,81.4-29c5.1-2.9,11.6-2.9,16.8,0.6c7.4,4.9,9.3,14.8,4.4,22.2
		c-20.7,31-44.2,60.2-70.2,87.1c-24,24.8-50,47.7-77.9,68.3l0.7,29.4c0.1,0.6,0.1,1.2,0.1,1.8c0,219.4-90.2,456.9-262.3,629
		c-146.7,146.6-352.6,245.8-612.6,245.8c-85.2,0-167.7-12.3-245.7-35.1c-80.4-23.5-156-58.3-225.1-102.4c-5.5-3-9-9.2-8.2-15.8
		c1-8.8,8.9-15.1,17.7-14.1l0,0c11.7,1.3,23.3,2.3,34.9,2.9c11.2,0.6,22.9,1,35.2,1c67.7,0,132.7-11.3,193.3-32.1
		c49.3-16.9,95.6-40.2,138-68.7c-52-8.2-99.7-28.9-140.1-58.9c-52.3-38.9-92.2-93.4-112.9-156.7c-1.2-2.8-1.6-5.9-1-9.1
		c1.6-8.7,10-14.4,18.7-12.8l0,0c9.1,1.7,18,3,26.8,3.8c8.6,0.8,17.7,1.2,27.3,1.2c3.2,0,6.3,0,9.4-0.1
		c-45.4-20.4-85.2-51.2-116.3-89.3c-44.8-54.9-71.7-124.9-71.7-201.2v-3.6c0-2.6,0.6-5.3,2-7.8c4.3-7.7,14-10.6,21.7-6.3l0,0
		c19.9,11,41.1,19.8,63.2,25.9c4,1.1,8,2.1,12,3c-23.6-22.8-43.6-49.3-59.3-78.6c-23.9-44.7-37.5-95.7-37.5-149.7
		c0-28.7,3.8-56.5,11-83.1c7.2-26.7,17.9-52.1,31.5-75.6c1-2.1,2.5-4,4.4-5.6c6.8-5.6,16.9-4.6,22.5,2.3l-12.4,10.1l12.4-10.1
		c74.4,91.2,167.3,166.4,273.1,220c96.6,48.9,203.9,79.8,317.6,88.3c-0.8-4.9-1.5-9.8-2-14.7c-1.4-12.2-2.1-24.4-2.1-36.8
		c0-87.7,35.6-167.2,93.1-224.7c57.5-57.5,137-93.1,224.7-93.1c44.6,0,87.4,9.3,126.2,26.1c37.5,16.2,71.2,39.3,99.3,67.7
		c30.3-6.4,59.7-15,88-25.8c31.4-11.9,61.4-26.5,89.8-43.3c3.9-2.7,9-3.5,13.9-2c8.4,2.7,13,11.7,10.3,20.2l0,0
		c-12,37-30.5,71.1-54,100.8c-9.7,12.2-20.3,23.7-31.7,34.4C1656.3,586.5,1663.5,584.6,1670.7,582.6L1670.7,582.6z"/>
</g>
<rect class="st1" width="2048" height="2048"/>
</svg>
